<?xml version="1.0" standalone="no"?>
<!DOCTYPE svg PUBLIC "-//W3C//DTD SVG 20010904//EN"
 "http://www.w3.org/TR/2001/REC-SVG-20010904/DTD/svg10.dtd">
<svg version="1.0" xmlns="http://www.w3.org/2000/svg"
 width="931.000000pt" height="931.000000pt" viewBox="0 0 931.000000 931.000000"
 preserveAspectRatio="xMidYMid meet">

<g transform="translate(0.000000,931.000000) scale(0.100000,-0.100000)"
fill="#000000" stroke="none">
<path d="M0 4655 l0 -4655 4655 0 4655 0 0 4655 0 4655 -4655 0 -4655 0 0
-4655z m4960 2546 c89 -19 209 -69 282 -118 24 -17 77 -46 118 -66 183 -88
315 -261 238 -311 -44 -28 -181 -36 -248 -14 -64 20 -98 52 -162 147 -60 91
-65 96 -136 128 -181 84 -386 82 -562 -5 -30 -15 -57 -30 -60 -33 -3 -3 -13
-10 -22 -15 -22 -12 -129 -116 -148 -144 -8 -12 -19 -28 -25 -34 -41 -46 -85
-185 -87 -276 -5 -258 159 -520 580 -922 71 -69 92 -81 92 -52 0 12 6 15 21
11 14 -4 19 -2 16 8 -7 16 12 35 36 35 11 0 15 4 11 12 -5 8 -2 9 10 5 9 -4
15 -3 12 2 -6 9 42 46 60 46 14 0 44 31 44 45 0 7 7 10 15 6 8 -3 15 -1 15 5
0 5 13 15 29 20 16 6 31 19 34 31 3 11 10 17 16 14 6 -4 18 2 28 13 9 11 20
18 25 15 4 -3 19 5 33 18 56 51 64 56 84 63 12 3 42 21 69 38 65 44 259 138
362 175 112 41 154 51 285 69 169 23 313 1 445 -70 209 -111 378 -334 439
-576 31 -124 29 -280 -4 -395 -100 -345 -353 -548 -714 -574 -110 -8 -135 -6
-230 13 -135 28 -190 45 -274 84 -37 17 -74 31 -81 31 -7 0 -19 7 -26 15 -7 8
-17 15 -22 15 -5 0 -33 16 -62 35 -29 19 -57 35 -61 35 -5 0 -16 7 -26 16 -10
9 -32 24 -51 34 -18 10 -32 23 -30 30 1 6 -2 9 -8 5 -5 -3 -20 3 -32 14 -12
12 -26 21 -31 21 -19 0 -87 56 -87 72 0 11 -5 15 -15 12 -8 -4 -15 -2 -15 4 0
5 -9 12 -20 15 -13 3 -20 14 -20 29 0 18 -2 20 -10 8 -8 -13 -11 -12 -24 5 -8
11 -42 40 -75 65 -33 25 -61 48 -61 52 0 4 9 9 19 13 11 3 22 12 25 20 3 8 11
15 18 15 7 0 24 14 37 30 13 17 31 30 40 30 9 0 57 -34 108 -75 50 -41 94 -75
97 -75 3 0 18 -12 33 -26 40 -37 233 -162 333 -216 265 -142 500 -178 702
-108 401 138 524 631 244 975 -135 165 -272 230 -478 228 -184 -3 -471 -104
-700 -249 -20 -13 -40 -24 -43 -24 -6 0 -67 -41 -75 -51 -3 -3 -20 -14 -39
-24 -19 -9 -43 -26 -54 -36 -12 -10 -27 -19 -34 -19 -7 0 -13 -4 -13 -9 0 -6
-18 -20 -40 -32 -22 -13 -40 -26 -40 -31 0 -4 -5 -8 -11 -8 -6 0 -55 -34 -110
-75 -54 -41 -101 -75 -105 -75 -3 0 -18 -10 -33 -22 -15 -13 -40 -32 -55 -43
-16 -11 -33 -25 -40 -30 -6 -6 -27 -22 -46 -35 -19 -13 -41 -30 -48 -37 -7 -7
-20 -13 -28 -13 -8 0 -14 -4 -14 -8 0 -10 -176 -142 -189 -142 -5 0 -11 -4
-13 -8 -3 -8 -101 -79 -146 -107 -9 -5 -43 -27 -75 -47 -32 -21 -63 -38 -68
-38 -5 0 -9 -3 -9 -8 0 -4 -21 -18 -47 -32 -27 -13 -51 -28 -54 -33 -3 -5 -12
-9 -20 -10 -12 -2 -58 -26 -109 -58 -8 -5 -26 -14 -40 -19 -14 -6 -34 -15 -45
-21 -14 -9 -20 -9 -23 0 -2 6 -13 10 -25 10 -17 -1 -18 -2 -4 -6 20 -5 23 -23
3 -23 -7 0 -35 -9 -60 -21 -91 -40 -222 -68 -341 -74 -105 -4 -303 34 -289 57
3 4 -5 8 -18 8 -13 0 -30 5 -38 10 -13 9 -13 11 0 21 11 8 7 9 -17 4 -25 -5
-37 -1 -61 22 -16 15 -47 43 -68 62 -37 33 -74 75 -101 117 -7 11 -24 36 -38
57 -13 20 -34 61 -46 90 -13 28 -26 57 -31 63 -5 6 -10 29 -13 50 -2 22 -9 64
-15 94 -12 64 -17 270 -7 287 4 6 4 18 1 27 -3 9 -2 16 4 16 5 0 13 20 16 45
4 24 11 47 15 50 5 2 12 21 15 40 4 20 11 33 17 30 5 -4 9 3 9 14 0 11 5 23
11 26 6 4 8 13 5 21 -3 8 -1 14 4 14 6 0 10 9 10 20 0 10 9 24 20 30 11 6 19
14 17 18 -4 13 44 82 58 82 7 0 15 9 18 20 3 11 15 24 27 28 12 4 22 12 23 17
1 6 8 18 16 27 11 13 18 14 28 6 10 -8 13 -6 13 11 0 16 6 21 26 21 16 0 28 7
30 18 5 16 19 24 114 66 112 50 295 42 460 -19 105 -39 353 -184 389 -228 7
-9 18 -17 23 -17 10 0 98 -69 163 -129 22 -20 80 -72 130 -116 49 -44 127
-116 173 -160 46 -44 87 -81 93 -83 5 -2 9 -12 9 -23 0 -10 4 -19 10 -19 5 0
7 7 3 16 -4 12 0 14 23 8 16 -4 26 -3 22 1 -7 8 21 38 51 54 20 12 5 48 -30
68 -16 9 -29 21 -29 26 0 5 -26 34 -57 64 -32 31 -57 60 -55 64 1 5 -3 9 -9 9
-7 0 -27 16 -46 35 -19 19 -32 35 -30 35 2 0 -25 30 -60 68 -34 37 -63 70 -63
74 0 5 -23 36 -50 70 -66 81 -114 174 -80 153 6 -3 7 1 4 10 -4 8 -13 14 -22
13 -10 -2 -18 5 -20 17 -3 11 -7 22 -11 25 -15 12 -72 169 -85 235 -10 55 -11
220 0 218 5 -1 10 25 11 59 0 33 5 63 10 67 6 3 16 32 23 64 7 31 17 57 22 57
4 0 8 6 8 13 0 7 9 19 20 27 11 8 20 20 20 27 0 7 7 13 16 13 10 0 14 6 11 14
-3 8 5 25 18 38 14 13 25 27 25 31 0 4 16 24 36 44 28 28 38 33 45 22 7 -11 9
-10 9 4 0 24 18 41 91 88 180 117 401 156 619 110z m-118 -2224 c90 -82 233
-203 305 -257 109 -83 201 -150 207 -150 3 0 32 -17 63 -37 69 -44 251 -133
273 -133 9 0 20 -4 25 -9 6 -4 48 -18 95 -30 142 -35 357 -34 455 3 11 4 43
16 70 27 87 33 86 18 -3 -34 -70 -41 -172 -83 -267 -109 -123 -35 -439 -32
-461 3 -3 5 -16 9 -29 9 -13 0 -27 5 -30 10 -4 6 -11 8 -16 5 -5 -4 -11 0 -14
7 -3 7 -20 13 -38 14 -21 0 -52 13 -83 35 -27 19 -66 42 -86 51 -21 9 -49 29
-64 43 -14 14 -29 23 -33 20 -5 -2 -19 5 -32 18 -13 12 -46 38 -72 57 -27 19
-57 43 -68 53 -10 9 -22 17 -25 17 -8 0 -159 126 -225 188 -32 29 -45 49 -42
61 3 10 -1 22 -7 26 -9 5 -10 1 -5 -14 9 -28 -9 -27 -32 2 -10 12 -28 30 -41
39 l-23 16 30 13 c18 8 30 20 28 29 -1 8 3 14 9 13 6 -1 24 11 39 27 16 17 34
30 39 30 6 0 32 -19 58 -43z m1812 -1313 c15 -32 35 -75 43 -94 9 -19 21 -46
28 -60 8 -14 22 -48 33 -75 11 -28 34 -79 50 -115 17 -36 55 -121 85 -190 98
-224 116 -257 148 -270 16 -7 32 -16 34 -20 3 -5 -51 -8 -120 -8 -69 1 -125 5
-125 10 0 4 11 8 25 8 20 0 25 5 25 26 0 32 -38 142 -56 164 -7 8 -18 30 -26
48 l-13 33 -24 -23 c-14 -12 -34 -24 -45 -25 -12 -2 -32 -7 -46 -12 -14 -6
-68 -13 -120 -17 -52 -4 -97 -8 -100 -9 -113 -24 -141 -38 -166 -87 -23 -44
-18 -87 11 -98 14 -5 25 -12 25 -15 0 -3 -38 -5 -85 -5 -84 0 -112 12 -57 25
19 4 38 24 65 66 20 33 37 64 37 70 0 10 64 165 105 254 12 28 33 73 45 100
12 28 30 66 39 85 10 19 21 47 24 61 4 14 17 41 30 61 14 19 34 64 46 99 13
35 25 67 28 72 11 17 29 -1 57 -59z m-3984 24 c0 -29 28 -90 66 -148 16 -24
36 -53 44 -66 8 -12 42 -60 75 -106 69 -95 116 -192 123 -255 2 -24 7 -43 10
-43 10 0 31 35 32 53 0 9 4 25 10 35 5 9 43 100 84 202 68 170 93 229 115 270
5 9 12 30 16 48 l7 32 71 0 72 -1 -27 -20 c-25 -18 -28 -27 -28 -79 0 -32 4
-92 10 -132 5 -40 14 -120 20 -178 42 -434 43 -437 92 -447 55 -11 38 -23 -31
-23 -70 0 -71 0 -72 28 -2 23 -2 24 -6 5 -2 -13 -10 -24 -16 -24 -7 -1 -24 -3
-39 -5 -33 -3 -36 6 -7 24 19 12 21 21 17 105 -1 51 -6 94 -10 97 -4 3 -9 41
-13 85 -3 44 -7 94 -10 110 -3 17 -7 66 -10 110 -2 45 -9 102 -14 127 -6 26
-8 54 -5 62 4 10 1 16 -8 16 -8 0 -20 -17 -27 -37 -7 -21 -16 -47 -21 -58 -17
-37 -42 -100 -60 -150 -11 -27 -59 -149 -108 -270 -73 -180 -93 -221 -110
-223 -19 -3 -20 0 -11 30 9 35 6 89 -10 148 -33 122 -43 155 -49 160 -4 3 -16
23 -27 45 -11 22 -23 42 -27 43 -5 2 -8 8 -8 13 0 9 -54 84 -71 99 -11 10 -69
111 -69 120 0 6 -3 10 -8 10 -4 0 -13 14 -21 31 -18 42 -31 21 -31 -51 0 -30
-5 -93 -10 -140 -51 -454 -51 -490 1 -490 10 0 21 -4 24 -10 4 -6 -28 -10 -89
-9 -53 0 -98 5 -102 10 -3 5 13 9 34 9 38 0 40 2 51 43 6 23 16 96 22 162 7
66 13 134 15 150 1 17 8 86 14 155 6 69 16 134 21 145 5 11 10 52 11 90 l3 70
-32 15 c-18 8 -33 18 -33 23 0 4 36 7 80 7 76 0 80 -1 80 -22z m1150 16 c0 -3
-16 -12 -35 -20 l-35 -14 -1 -113 c-4 -659 -4 -669 21 -689 12 -10 28 -18 36
-18 8 0 14 -5 14 -10 0 -7 -38 -10 -105 -8 -58 1 -105 4 -105 6 0 1 10 16 21
31 21 28 21 38 21 377 -1 192 -1 351 -2 354 -1 3 -3 15 -4 27 -4 32 -35 63
-63 63 -12 0 -23 5 -23 10 0 6 50 10 130 10 72 0 130 -2 130 -6z m814 -59 c15
-61 22 -129 9 -95 -10 27 -87 121 -98 120 -3 0 -15 2 -28 5 -33 8 -138 13
-169 7 l-28 -4 0 -394 c0 -381 1 -395 20 -414 11 -11 27 -20 35 -20 8 0 15 -4
15 -9 0 -5 -46 -10 -103 -10 -57 0 -108 -1 -113 -2 -19 -3 -34 1 -34 11 0 6
10 10 23 10 13 0 31 6 41 13 15 11 17 43 18 372 0 198 0 379 -1 401 l-1 42
-82 4 c-85 4 -148 -5 -148 -22 0 -6 -5 -10 -10 -10 -13 0 -68 -60 -75 -82 -7
-21 -25 -24 -25 -5 0 6 7 26 16 42 8 17 17 46 19 65 2 19 3 36 4 38 1 1 158 2
350 2 l349 0 16 -65z m332 56 c-3 -4 -19 -11 -35 -14 -19 -4 -32 -14 -37 -29
-9 -29 -8 -567 1 -599 47 -165 181 -244 341 -200 67 18 132 90 160 178 12 38
15 105 14 325 0 152 -3 285 -7 295 -9 23 -23 33 -50 33 -13 0 -23 5 -23 10 0
6 40 10 101 10 95 0 123 -11 60 -23 -15 -3 -31 -13 -34 -22 -4 -8 -7 -131 -7
-273 -1 -225 -3 -266 -21 -333 -37 -138 -127 -221 -270 -247 -130 -25 -270 50
-330 174 -21 45 -29 73 -24 91 3 14 2 22 -4 19 -11 -7 -18 78 -11 153 3 31 1
63 -4 72 -5 9 -5 25 -1 35 5 11 8 22 7 26 -2 11 -3 57 -3 138 0 144 -10 170
-66 170 -13 0 -23 5 -23 10 0 6 52 10 136 10 74 0 133 -4 130 -9z m1077 -6
c71 -18 136 -65 172 -125 40 -64 47 -179 16 -244 -32 -64 -89 -118 -152 -141
-68 -24 -73 -25 -191 -25 l-98 -1 0 -134 c0 -132 0 -134 26 -154 15 -12 33
-21 41 -21 8 0 13 -6 10 -12 -2 -7 -11 -11 -18 -10 -15 4 -182 3 -213 -1 -32
-4 -29 20 3 26 30 6 68 57 53 71 -3 4 0 11 8 16 9 6 10 10 3 10 -9 0 -12 40
-12 145 -1 96 3 145 10 145 6 0 7 5 2 13 -11 17 -13 267 -2 267 6 0 5 8 -1 19
-5 11 -10 39 -10 63 -1 53 -20 80 -58 82 -19 1 -28 5 -25 14 8 19 361 17 436
-3z m-2783 -855 c0 -5 -7 -10 -15 -10 -8 0 -15 5 -15 10 0 6 7 10 15 10 8 0
15 -4 15 -10z m340 0 c0 -5 -9 -10 -20 -10 -11 0 -20 5 -20 10 0 6 9 10 20 10
11 0 20 -4 20 -10z m-520 -351 c16 -29 5 -35 -24 -11 -25 19 -25 32 0 32 7 0
18 -9 24 -21z m310 -5 c0 -17 -10 -17 -33 0 -13 10 -15 15 -5 19 19 6 38 -3
38 -19z m140 16 c0 -5 -8 -10 -17 -10 -15 0 -16 2 -3 10 19 12 20 12 20 0z
m108 -1 c21 -7 40 -26 57 -56 29 -52 32 -98 10 -150 -8 -19 -15 -39 -15 -43 0
-9 43 -27 80 -34 14 -2 -2 -2 -35 0 -98 7 -106 8 -100 21 2 7 -4 28 -15 46
-21 35 -22 129 -1 150 18 18 13 48 -9 54 -11 3 -17 9 -14 14 6 11 5 11 42 -2z
m67 1 c3 -5 -1 -10 -10 -10 -9 0 -13 5 -10 10 3 6 8 10 10 10 2 0 7 -4 10 -10z
m151 -33 c26 -25 34 -41 36 -72 5 -87 -1 -112 -34 -144 -43 -42 -55 -39 -22 4
21 28 27 47 27 89 1 48 -3 59 -37 100 -20 25 -42 46 -47 46 -5 0 -9 5 -9 11 0
20 51 0 86 -34z m508 10 c3 -12 -1 -32 -10 -44 -17 -27 -40 -31 -28 -5 4 9 7
31 7 49 -2 36 21 37 31 0z m586 6 c25 -23 31 -36 32 -71 0 -44 -22 -82 -49
-82 -17 0 -17 15 2 34 23 22 19 81 -7 106 -12 11 -26 20 -30 20 -5 0 -6 5 -3
10 10 16 23 12 55 -17z m764 -5 c7 -18 50 -70 94 -114 71 -72 111 -135 86
-134 -14 1 -44 26 -44 38 0 6 -25 30 -55 54 -30 23 -55 46 -55 51 0 4 -11 20
-25 35 l-25 27 -1 -80 c-1 -44 0 -92 1 -107 1 -16 -3 -28 -9 -28 -7 0 -10 49
-9 145 2 111 5 145 15 145 7 0 19 -15 27 -32z m191 21 c10 -15 -1 -23 -20 -15
-9 3 -13 10 -10 16 8 13 22 13 30 -1z m257 6 c10 -4 12 -36 10 -145 -3 -125
-5 -140 -20 -140 -16 0 -18 13 -16 143 2 78 3 143 3 145 1 3 8 3 23 -3z m472
-11 c9 -8 16 -20 16 -25 0 -12 150 -169 161 -169 5 0 7 45 4 100 -3 74 -1 100
8 100 9 0 11 -35 9 -137 -2 -76 -6 -140 -9 -143 -3 -3 -10 4 -17 15 -6 11 -41
51 -78 88 -38 38 -68 73 -68 79 0 6 -9 8 -21 5 -22 -6 -25 -2 -33 61 -7 44 2
53 28 26z m563 -6 c28 -26 31 -58 5 -58 -15 0 -18 6 -14 30 3 23 0 30 -12 30
-9 0 -16 5 -16 10 0 16 12 12 37 -12z m-4918 9 c-2 -1 -12 -9 -21 -16 -15 -12
-18 -11 -18 3 0 10 8 16 22 16 12 0 19 -1 17 -3z m96 -137 l0 -140 -23 0 c-18
0 -23 4 -18 16 3 9 6 72 6 140 0 111 2 124 18 124 15 0 17 -13 17 -140z m105
125 c0 -19 -9 -19 -34 0 -19 14 -19 15 7 15 17 0 27 -5 27 -15z m236 -7 c3
-13 17 -45 29 -73 67 -144 79 -171 83 -177 2 -5 -7 -8 -21 -8 -20 0 -28 8 -41
41 -13 33 -19 39 -30 29 -10 -8 -24 -8 -48 -1 l-33 9 38 1 c23 1 40 7 43 16 3
8 -9 45 -28 82 -18 38 -32 76 -30 86 5 24 29 21 38 -5z m173 18 c-2 -2 -14 -9
-26 -15 -19 -10 -23 -9 -23 4 0 10 9 15 27 15 14 0 24 -2 22 -4z m91 -136 l0
-140 -26 0 c-19 0 -25 4 -21 14 8 21 11 236 3 243 -13 13 -5 23 19 23 l25 0 0
-140z m196 125 c-35 -18 -36 -18 -36 0 0 10 10 15 33 15 l32 0 -29 -15z m109
-125 c0 -133 -1 -140 -20 -140 -19 0 -20 7 -20 140 0 133 1 140 20 140 19 0
20 -7 20 -140z m994 123 c-3 -38 2 -62 16 -77 8 -8 15 -19 15 -25 0 -6 3 -11
8 -11 4 0 18 -18 32 -40 14 -22 30 -40 36 -40 6 0 16 -11 22 -25 7 -14 19 -28
27 -31 27 -11 16 -27 -12 -20 -16 4 -37 8 -48 10 -14 2 -19 9 -17 24 2 11 -5
26 -15 34 -10 7 -24 26 -31 41 -7 16 -22 31 -33 34 -12 3 -18 11 -15 19 3 7
-1 25 -9 40 -10 19 -11 34 -3 55 11 32 30 40 27 12z m563 5 c-7 -7 -12 -41
-12 -81 0 -62 2 -69 22 -75 l22 -5 -24 -9 c-20 -8 -22 -13 -17 -53 6 -42 5
-45 -16 -45 -22 0 -22 2 -22 140 l0 140 30 0 c22 0 26 -3 17 -12z m373 -10 c9
-28 22 -60 71 -166 20 -45 35 -84 33 -86 -2 -2 -13 -6 -23 -8 -14 -2 -22 6
-30 32 -22 67 -59 140 -67 134 -5 -3 -8 3 -7 13 3 40 -2 55 -17 49 -18 -6 -18
-5 -5 28 12 32 36 34 45 4z m298 -115 c-1 -126 -3 -138 -20 -141 -17 -3 -18 7
-18 138 0 133 1 140 20 140 19 0 20 -6 18 -137z m547 122 c-7 -8 -16 -15 -21
-15 -5 0 -9 7 -9 15 0 9 9 15 21 15 18 0 19 -2 9 -15z m215 4 c12 -19 -2 -21
-32 -5 l-28 15 27 1 c15 0 30 -5 33 -11z m170 -128 c0 -132 -1 -140 -20 -143
-19 -4 -20 1 -20 139 0 136 1 143 20 143 19 0 20 -7 20 -139z m603 112 c-41
-45 -47 -63 -37 -118 15 -81 50 -120 124 -139 11 -3 -7 -3 -40 -1 -61 4 -65 7
-113 70 -15 19 -13 93 3 131 19 46 52 84 74 84 11 0 8 -8 -11 -27z m-3579 -27
c-39 -80 -5 -181 74 -216 l42 -20 -32 0 c-37 0 -102 29 -103 47 0 6 -5 13 -11
15 -6 2 -13 31 -16 64 -6 62 7 102 42 138 26 25 26 19 4 -28z m-799 -22 c0 -3
-9 -17 -20 -31 -22 -29 -25 -26 -10 11 8 23 30 37 30 20z m2476 -36 c-19 -26
-22 -7 -4 25 7 13 13 17 15 10 3 -7 -3 -23 -11 -35z m-723 -2 c8 -20 -4 -86
-14 -86 -5 0 -7 11 -3 25 3 14 1 32 -6 40 -12 14 -6 35 10 35 4 0 10 -6 13
-14z m2199 -53 c-5 -77 -9 -78 -14 -4 -2 39 1 61 8 61 6 0 9 -21 6 -57z m584
41 c18 -5 21 -13 22 -69 1 -66 -4 -77 -48 -90 -24 -7 -24 -7 -7 12 19 22 25
133 7 133 -5 0 -10 5 -10 10 0 11 6 12 36 4z m-2076 -18 c0 -3 -4 -8 -10 -11
-5 -3 -10 -1 -10 4 0 6 5 11 10 11 6 0 10 -2 10 -4z m-878 -56 c-3 -43 0 -53
20 -70 l23 -19 -22 -1 c-13 0 -32 9 -44 21 -17 17 -19 28 -14 62 9 49 12 57
28 57 8 0 11 -16 9 -50z m-1641 17 c-10 -9 -11 -8 -5 6 3 10 9 15 12 12 3 -3
0 -11 -7 -18z m-1 -31 c0 -15 -18 -31 -26 -23 -7 7 7 37 17 37 5 0 9 -6 9 -14z
m2578 7 c-10 -2 -26 -2 -35 0 -10 3 -2 5 17 5 19 0 27 -2 18 -5z m-68 -8 c0
-2 -9 -9 -20 -15 -16 -9 -20 -8 -20 5 0 8 9 15 20 15 11 0 20 -2 20 -5z m-40
-50 c0 -8 -7 -15 -15 -15 -26 0 -18 20 13 29 1 1 2 -6 2 -14z m1541 -8 c-13
-13 -26 -3 -16 12 3 6 11 8 17 5 6 -4 6 -10 -1 -17z m-4041 3 c0 -5 -4 -10
-10 -10 -5 0 -10 5 -10 10 0 6 5 10 10 10 6 0 10 -4 10 -10z m1755 -10 c3 -5
1 -10 -4 -10 -6 0 -11 5 -11 10 0 6 2 10 4 10 3 0 8 -4 11 -10z"/>
<path d="M5366 6827 c7 -18 43 -39 55 -31 14 9 -19 44 -42 44 -11 0 -16 -5
-13 -13z"/>
<path d="M4070 6569 c0 -5 5 -7 10 -4 6 3 10 8 10 11 0 2 -4 4 -10 4 -5 0 -10
-5 -10 -11z"/>
<path d="M4051 6524 c0 -11 3 -14 6 -6 3 7 2 16 -1 19 -3 4 -6 -2 -5 -13z"/>
<path d="M4010 6511 c0 -12 5 -21 10 -21 6 0 10 6 10 14 0 8 -4 18 -10 21 -5
3 -10 -3 -10 -14z"/>
<path d="M4052 6384 c10 -10 20 -15 24 -12 3 4 -5 12 -18 18 -22 12 -22 12 -6
-6z"/>
<path d="M4102 6340 c0 -14 2 -19 5 -12 2 6 2 18 0 25 -3 6 -5 1 -5 -13z"/>
<path d="M4001 6314 c0 -11 3 -14 6 -6 3 7 2 16 -1 19 -3 4 -6 -2 -5 -13z"/>
<path d="M4058 6307 c-3 -15 -1 -30 4 -33 13 -9 15 -3 8 31 l-6 30 -6 -28z"/>
<path d="M4107 6283 c-2 -5 0 -21 4 -38 7 -29 7 -29 8 8 1 35 -3 46 -12 30z"/>
<path d="M4007 6260 c-3 -11 -1 -20 4 -20 5 0 9 9 9 20 0 11 -2 20 -4 20 -2 0
-6 -9 -9 -20z"/>
<path d="M4090 6115 c0 -8 4 -15 10 -15 5 0 7 7 4 15 -4 8 -8 15 -10 15 -2 0
-4 -7 -4 -15z"/>
<path d="M3326 6002 c-2 -4 4 -8 14 -8 10 0 16 4 14 8 -3 4 -9 8 -14 8 -5 0
-11 -4 -14 -8z"/>
<path d="M3427 5991 c-3 -12 -1 -21 3 -21 15 0 23 21 12 32 -6 6 -11 2 -15
-11z"/>
<path d="M4158 6003 c7 -3 16 -2 19 1 4 3 -2 6 -13 5 -11 0 -14 -3 -6 -6z"/>
<path d="M4241 5994 c0 -11 3 -14 6 -6 3 7 2 16 -1 19 -3 4 -6 -2 -5 -13z"/>
<path d="M3480 5979 c0 -5 5 -7 10 -4 6 3 10 8 10 11 0 2 -4 4 -10 4 -5 0 -10
-5 -10 -11z"/>
<path d="M3330 5970 c-8 -5 -12 -11 -9 -14 2 -3 11 -1 19 4 8 5 12 11 9 14 -2
3 -11 1 -19 -4z"/>
<path d="M4192 5958 c7 -15 15 -23 17 -17 2 6 -4 18 -13 27 -15 15 -15 15 -4
-10z"/>
<path d="M2960 5956 c0 -2 7 -7 16 -10 8 -3 12 -2 9 4 -6 10 -25 14 -25 6z"/>
<path d="M4230 5951 c0 -6 4 -13 10 -16 6 -3 7 1 4 9 -7 18 -14 21 -14 7z"/>
<path d="M3003 5930 c2 -8 12 -16 23 -17 13 -2 15 -1 4 4 -8 3 -19 11 -23 17
-6 7 -7 6 -4 -4z"/>
<path d="M3051 5904 c0 -11 3 -14 6 -6 3 7 2 16 -1 19 -3 4 -6 -2 -5 -13z"/>
<path d="M4165 5911 c-3 -5 -1 -12 5 -16 5 -3 10 1 10 9 0 18 -6 21 -15 7z"/>
<path d="M3220 5903 c-93 -14 -165 -41 -205 -76 -11 -10 -37 -33 -58 -50 -115
-95 -203 -290 -212 -468 -11 -223 83 -435 245 -558 19 -14 37 -29 40 -33 10
-13 105 -50 155 -59 74 -14 202 -11 270 6 33 9 71 18 85 21 14 2 39 11 57 19
17 8 39 12 49 8 10 -4 15 -2 11 3 -3 5 8 17 24 26 16 10 31 13 34 7 10 -15 25
-10 19 6 -4 10 0 15 10 15 9 0 30 10 47 22 26 19 31 20 39 8 8 -12 10 -10 10
8 0 25 11 27 43 10 20 -10 21 -10 8 6 -11 13 -11 20 -3 28 9 9 12 9 12 0 0
-19 18 -14 25 8 7 22 31 27 38 8 2 -8 11 0 20 17 9 17 16 26 17 22 0 -4 14 6
30 23 24 25 34 29 45 20 10 -9 15 -7 20 9 6 19 89 76 110 76 6 0 15 9 20 20 6
11 16 20 23 20 7 0 16 6 21 13 5 8 10 12 12 10 10 -8 79 57 88 84 9 26 9 29
-4 18 -16 -13 -41 6 -167 132 -32 31 -58 55 -58 52 0 -3 -25 19 -55 49 -30 30
-55 51 -55 48 0 -3 -6 1 -13 10 -10 13 -106 96 -152 131 -5 4 -30 24 -55 43
-25 19 -53 38 -62 41 -10 4 -18 10 -18 15 0 9 -174 109 -190 109 -5 0 -10 5
-10 11 0 5 -5 7 -10 4 -6 -4 -16 -2 -23 3 -7 5 -50 21 -97 35 -80 24 -122 29
-180 20z"/>
<path d="M3720 5874 c0 -8 5 -12 10 -9 6 3 10 10 10 16 0 5 -4 9 -10 9 -5 0
-10 -7 -10 -16z"/>
<path d="M3530 5876 c0 -2 7 -7 16 -10 8 -3 12 -2 9 4 -6 10 -25 14 -25 6z"/>
<path d="M2931 5844 c0 -11 3 -14 6 -6 3 7 2 16 -1 19 -3 4 -6 -2 -5 -13z"/>
<path d="M4264 5819 c-3 -6 -1 -16 5 -22 8 -8 11 -5 11 11 0 24 -5 28 -16 11z"/>
<path d="M4316 5812 c-4 -13 -5 -26 -2 -29 10 -11 18 4 14 29 l-4 23 -8 -23z"/>
<path d="M2914 5799 c-3 -6 -1 -16 5 -22 8 -8 11 -5 11 11 0 24 -5 28 -16 11z"/>
<path d="M3691 5794 c0 -11 3 -14 6 -6 3 7 2 16 -1 19 -3 4 -6 -2 -5 -13z"/>
<path d="M3845 5780 c-3 -5 -1 -10 4 -10 6 0 11 5 11 10 0 6 -2 10 -4 10 -3 0
-8 -4 -11 -10z"/>
<path d="M4391 5763 c-1 -18 4 -33 9 -33 12 0 12 17 0 45 -7 17 -9 15 -9 -12z"/>
<path d="M3807 5750 c3 -11 7 -20 9 -20 2 0 4 9 4 20 0 11 -4 20 -9 20 -5 0
-7 -9 -4 -20z"/>
<path d="M4362 5730 c0 -14 2 -19 5 -12 2 6 2 18 0 25 -3 6 -5 1 -5 -13z"/>
<path d="M2725 5720 c-3 -5 -1 -10 4 -10 6 0 11 5 11 10 0 6 -2 10 -4 10 -3 0
-8 -4 -11 -10z"/>
<path d="M2788 5683 c7 -3 16 -2 19 1 4 3 -2 6 -13 5 -11 0 -14 -3 -6 -6z"/>
<path d="M4460 5666 c0 -2 8 -10 18 -17 15 -13 16 -12 3 4 -13 16 -21 21 -21
13z"/>
<path d="M2677 5643 c-4 -3 -7 -11 -7 -17 0 -6 5 -5 12 2 6 6 9 14 7 17 -3 3
-9 2 -12 -2z"/>
<path d="M2750 5630 c-9 -6 -10 -10 -3 -10 6 0 15 5 18 10 8 12 4 12 -15 0z"/>
<path d="M2791 5624 c0 -11 3 -14 6 -6 3 7 2 16 -1 19 -3 4 -6 -2 -5 -13z"/>
<path d="M4406 5627 c3 -10 9 -15 12 -12 3 3 0 11 -7 18 -10 9 -11 8 -5 -6z"/>
<path d="M4435 5600 c3 -5 8 -10 11 -10 2 0 4 5 4 10 0 6 -5 10 -11 10 -5 0
-7 -4 -4 -10z"/>
<path d="M2675 5590 c3 -5 8 -10 11 -10 2 0 4 5 4 10 0 6 -5 10 -11 10 -5 0
-7 -4 -4 -10z"/>
<path d="M4011 5563 c-7 -8 -11 -16 -8 -19 2 -2 10 2 17 11 17 20 9 27 -9 8z"/>
<path d="M4107 5566 c-4 -10 -1 -13 8 -9 8 3 12 9 9 14 -7 12 -11 11 -17 -5z"/>
<path d="M4580 5530 c0 -5 5 -10 11 -10 5 0 7 5 4 10 -3 6 -8 10 -11 10 -2 0
-4 -4 -4 -10z"/>
<path d="M4975 5520 c-3 -5 -1 -10 4 -10 6 0 11 5 11 10 0 6 -2 10 -4 10 -3 0
-8 -4 -11 -10z"/>
<path d="M4101 5494 c0 -11 3 -14 6 -6 3 7 2 16 -1 19 -3 4 -6 -2 -5 -13z"/>
<path d="M4950 5490 c0 -5 5 -10 10 -10 6 0 10 5 10 10 0 6 -4 10 -10 10 -5 0
-10 -4 -10 -10z"/>
<path d="M2600 5468 c0 -5 13 -8 29 -8 17 0 32 3 34 8 3 4 -10 7 -29 7 -19 0
-34 -3 -34 -7z"/>
<path d="M2630 5426 c0 -2 7 -7 16 -10 8 -3 12 -2 9 4 -6 10 -25 14 -25 6z"/>
<path d="M4170 5421 c0 -10 19 -25 25 -20 1 2 -3 10 -11 17 -8 7 -14 8 -14 3z"/>
<path d="M4220 5420 c0 -5 5 -10 11 -10 5 0 7 5 4 10 -3 6 -8 10 -11 10 -2 0
-4 -4 -4 -10z"/>
<path d="M4270 5366 c0 -9 5 -16 10 -16 6 0 10 4 10 9 0 6 -4 13 -10 16 -5 3
-10 -1 -10 -9z"/>
<path d="M4690 5340 c0 -5 5 -10 11 -10 5 0 7 5 4 10 -3 6 -8 10 -11 10 -2 0
-4 -4 -4 -10z"/>
<path d="M4765 5280 c4 -6 11 -8 16 -5 14 9 11 15 -7 15 -8 0 -12 -5 -9 -10z"/>
<path d="M4586 5257 c3 -10 9 -15 12 -12 3 3 0 11 -7 18 -10 9 -11 8 -5 -6z"/>
<path d="M4725 5260 c3 -5 11 -10 16 -10 6 0 7 5 4 10 -3 6 -11 10 -16 10 -6
0 -7 -4 -4 -10z"/>
<path d="M4405 5220 c-3 -5 -1 -10 4 -10 6 0 11 5 11 10 0 6 -2 10 -4 10 -3 0
-8 -4 -11 -10z"/>
<path d="M4561 5214 c0 -11 3 -14 6 -6 3 7 2 16 -1 19 -3 4 -6 -2 -5 -13z"/>
<path d="M4530 5189 c0 -5 5 -7 10 -4 6 3 10 8 10 11 0 2 -4 4 -10 4 -5 0 -10
-5 -10 -11z"/>
<path d="M4394 5154 c-4 -10 -9 -22 -11 -26 -2 -5 0 -8 5 -8 10 0 24 41 17 48
-3 3 -8 -4 -11 -14z"/>
<path d="M4468 5163 c7 -3 16 -2 19 1 4 3 -2 6 -13 5 -11 0 -14 -3 -6 -6z"/>
<path d="M2700 5080 c0 -5 5 -10 11 -10 5 0 7 5 4 10 -3 6 -8 10 -11 10 -2 0
-4 -4 -4 -10z"/>
<path d="M2698 5013 c7 -3 16 -2 19 1 4 3 -2 6 -13 5 -11 0 -14 -3 -6 -6z"/>
<path d="M4285 5000 c3 -5 8 -10 11 -10 2 0 4 5 4 10 0 6 -5 10 -11 10 -5 0
-7 -4 -4 -10z"/>
<path d="M2715 4980 c3 -5 8 -10 11 -10 2 0 4 5 4 10 0 6 -5 10 -11 10 -5 0
-7 -4 -4 -10z"/>
<path d="M4196 4933 c9 -38 14 -42 14 -10 0 14 -5 29 -10 32 -7 4 -8 -3 -4
-22z"/>
<path d="M2715 4940 c-3 -5 -2 -17 3 -26 6 -11 11 -13 16 -5 4 6 3 11 -3 11
-6 0 -8 7 -5 15 7 17 -1 20 -11 5z"/>
<path d="M4231 4934 c0 -11 3 -14 6 -6 3 7 2 16 -1 19 -3 4 -6 -2 -5 -13z"/>
<path d="M2670 4926 c0 -2 7 -7 16 -10 8 -3 12 -2 9 4 -6 10 -25 14 -25 6z"/>
<path d="M4255 4910 c3 -5 8 -10 11 -10 2 0 4 5 4 10 0 6 -5 10 -11 10 -5 0
-7 -4 -4 -10z"/>
<path d="M4041 4894 c0 -11 3 -14 6 -6 3 7 2 16 -1 19 -3 4 -6 -2 -5 -13z"/>
<path d="M4190 4860 c0 -5 7 -7 15 -4 8 4 15 8 15 10 0 2 -7 4 -15 4 -8 0 -15
-4 -15 -10z"/>
<path d="M2765 4831 c-3 -5 -1 -12 4 -15 5 -3 11 1 15 9 6 16 -9 21 -19 6z"/>
<path d="M4020 4830 c0 -5 5 -10 11 -10 5 0 7 5 4 10 -3 6 -8 10 -11 10 -2 0
-4 -4 -4 -10z"/>
<path d="M5420 4826 c0 -3 9 -10 20 -16 11 -6 20 -8 20 -6 0 3 -9 10 -20 16
-11 6 -20 8 -20 6z"/>
<path d="M3950 4794 c0 -8 5 -12 10 -9 6 3 10 10 10 16 0 5 -4 9 -10 9 -5 0
-10 -7 -10 -16z"/>
<path d="M4075 4800 c-3 -5 -1 -10 4 -10 6 0 11 5 11 10 0 6 -2 10 -4 10 -3 0
-8 -4 -11 -10z"/>
<path d="M2795 4790 c3 -5 8 -10 11 -10 2 0 4 5 4 10 0 6 -5 10 -11 10 -5 0
-7 -4 -4 -10z"/>
<path d="M5407 4789 c7 -7 15 -10 18 -7 3 3 -2 9 -12 12 -14 6 -15 5 -6 -5z"/>
<path d="M3780 4771 c0 -5 7 -11 14 -14 10 -4 13 -1 9 9 -6 15 -23 19 -23 5z"/>
<path d="M3846 4745 c4 -8 11 -15 16 -15 6 0 5 6 -2 15 -7 8 -14 15 -16 15 -2
0 -1 -7 2 -15z"/>
<path d="M5517 4739 c7 -7 15 -10 18 -7 3 3 -2 9 -12 12 -14 6 -15 5 -6 -5z"/>
<path d="M3731 4684 c0 -11 3 -14 6 -6 3 7 2 16 -1 19 -3 4 -6 -2 -5 -13z"/>
<path d="M3691 4674 c0 -11 3 -14 6 -6 3 7 2 16 -1 19 -3 4 -6 -2 -5 -13z"/>
<path d="M3660 4665 c0 -8 4 -15 10 -15 5 0 7 7 4 15 -4 8 -8 15 -10 15 -2 0
-4 -7 -4 -15z"/>
<path d="M5794 4666 c11 -9 24 -16 30 -16 12 0 7 5 -24 19 -24 11 -24 11 -6
-3z"/>
<path d="M3735 4640 c3 -5 8 -10 11 -10 2 0 4 5 4 10 0 6 -5 10 -11 10 -5 0
-7 -4 -4 -10z"/>
<path d="M3480 4606 c0 -2 6 -9 13 -15 10 -8 14 -7 14 4 0 8 -6 15 -14 15 -7
0 -13 -2 -13 -4z"/>
<path d="M3305 4590 c3 -5 8 -10 11 -10 2 0 4 5 4 10 0 6 -5 10 -11 10 -5 0
-7 -4 -4 -10z"/>
<path d="M3105 4550 c-3 -6 1 -7 9 -4 18 7 21 14 7 14 -6 0 -13 -4 -16 -10z"/>
<path d="M3370 4511 c0 -6 4 -13 10 -16 6 -3 7 1 4 9 -7 18 -14 21 -14 7z"/>
<path d="M4788 4868 c-10 -12 -16 -24 -13 -26 7 -7 37 27 33 38 -2 5 -11 0
-20 -12z"/>
<path d="M5160 4550 c0 -5 5 -10 11 -10 5 0 7 5 4 10 -3 6 -8 10 -11 10 -2 0
-4 -4 -4 -10z"/>
<path d="M5418 4433 c7 -3 16 -2 19 1 4 3 -2 6 -13 5 -11 0 -14 -3 -6 -6z"/>
<path d="M5870 4270 c0 -5 5 -10 11 -10 5 0 7 5 4 10 -3 6 -8 10 -11 10 -2 0
-4 -4 -4 -10z"/>
<path d="M6562 3578 c-7 -7 -12 -16 -12 -20 0 -5 -29 -75 -64 -156 -92 -212
-114 -261 -142 -316 -13 -27 -22 -51 -20 -53 2 -2 29 3 60 12 31 9 71 18 89
20 168 18 245 30 265 43 33 21 29 73 -11 152 -19 36 -40 83 -47 105 -7 22 -21
52 -31 67 -11 14 -19 31 -19 37 0 6 -4 19 -9 29 -5 9 -17 34 -26 55 -18 42
-17 41 -33 25z"/>
<path d="M3295 3260 c-3 -5 -2 -10 4 -10 5 0 13 5 16 10 3 6 2 10 -4 10 -5 0
-13 -4 -16 -10z"/>
<path d="M2932 2950 c0 -14 2 -19 5 -12 2 6 2 18 0 25 -3 6 -5 1 -5 -13z"/>
<path d="M3691 3224 c0 -11 3 -14 6 -6 3 7 2 16 -1 19 -3 4 -6 -2 -5 -13z"/>
<path d="M5788 3436 l-3 -245 30 -4 c17 -3 59 -3 95 0 36 3 75 5 88 5 12 0 22
4 22 9 0 5 8 9 18 9 22 0 86 93 101 145 12 44 7 137 -10 180 -7 16 -27 49 -46
72 -42 53 -99 73 -209 73 l-83 0 -3 -244z"/>
<path d="M3636 2406 c-7 -36 10 -122 25 -132 5 -3 14 6 20 20 9 19 8 38 -2 82
-16 67 -34 79 -43 30z"/>
</g>
</svg>
